<svg xmlns="http://www.w3.org/2000/svg" width="500" height="500" viewBox="0 0 500 500">
  <style type="text/css">
    .st0{fill:#25434E;}
    .st1{fill:#FFFFFF;}
    .st2{fill:#45ABDE;}
  </style>
  <g>
    <circle class="st0" cx="250" cy="250" r="250"/>
    <path class="st1" d="M360.2,150.6L360.2,150.6c-17-34.6-52.8-55.9-91.3-54.2v-0.2c-8.1,1.7-16-3.5-17.7-11.6c0,0,0,0,0,0
		c-1.7-8.1,3.5-16,11.6-17.7c0,0,0,0,0,0c2-0.4,4.1-0.4,6,0c-15.7-7.5-33.5-9.6-50.6-6c-43.1,9-70.7,51.2-61.8,94.3
		c1.5,7.2,4,14.2,7.4,20.7c-9.8-6.6-18.1-15.2-24.2-25.4c-21.4,24.5-33.4,55.8-33.9,88.3v59.4c0,67.8,54.9,122.7,122.7,122.7h43
		c67.7-0.1,122.5-55,122.5-122.7v-59.2C393.6,206.4,381.6,175.1,360.2,150.6z"/>
    <path class="st2" d="M311.8,205.1c-34.2,0-68.8,19.8-68.8,19.8l20.7-25c0,0-19.9,20.8-64.5,20.8s-58.4-10.4-58.4-10.4v75
		c0,36.7,28.2,67.4,64.8,70.5c0.1-0.2,0.2-0.5,0.3-0.7l8.4-14.5c2.4-3.9,6-3.9,8.4,0l8.4,14.5c0.2,0.3,0.3,0.7,0.5,1h36.6
		c0.1-0.3,0.3-0.7,0.5-1l8.4-14.5c2.4-3.9,6-3.9,8.4,0l8.4,14.5c0.1,0.2,0.2,0.4,0.3,0.7c36.6-3.1,64.8-33.7,64.8-70.5v-75
		C359,210.2,346,205.1,311.8,205.1z"/>
    <circle class="st0" cx="206.6" cy="268.5" r="14.6"/>
    <circle class="st0" cx="293.2" cy="268.5" r="14.6"/>
  </g>
</svg>
